<?xml version="1.0" encoding="UTF-8" standalone="no"?>
<svg
   xmlns:dc="http://purl.org/dc/elements/1.1/"
   xmlns:cc="http://creativecommons.org/ns#"
   xmlns:rdf="http://www.w3.org/1999/02/22-rdf-syntax-ns#"
   xmlns:svg="http://www.w3.org/2000/svg"
   xmlns="http://www.w3.org/2000/svg"
   xmlns:sodipodi="http://sodipodi.sourceforge.net/DTD/sodipodi-0.dtd"
   xmlns:inkscape="http://www.inkscape.org/namespaces/inkscape"
   width="64"
   height="64"
   viewBox="0 0 16.933333 16.933334"
   version="1.1"
   id="svg8"
   inkscape:version="0.92.3 (2405546, 2018-03-11)"
   sodipodi:docname="11-Team force.svg"
   inkscape:export-filename="/home/wanzabuyumna/@WANZ_DESIGN/NICON STUDIO MAGANG/Style Line/Style Line/Icon 8/Icon 8.png"
   inkscape:export-xdpi="96"
   inkscape:export-ydpi="96">
  <defs
     id="defs2" />
  <sodipodi:namedview
     id="base"
     pagecolor="#ffffff"
     bordercolor="#959595"
     borderopacity="1"
     inkscape:pageopacity="0"
     inkscape:pageshadow="2"
     inkscape:zoom="11.313708"
     inkscape:cx="19.98145"
     inkscape:cy="35.594657"
     inkscape:document-units="px"
     inkscape:current-layer="layer1"
     inkscape:document-rotation="0"
     showgrid="false"
     units="px"
     inkscape:window-width="1920"
     inkscape:window-height="1040"
     inkscape:window-x="0"
     inkscape:window-y="0"
     inkscape:window-maximized="1"
     inkscape:pagecheckerboard="0" />
  <metadata
     id="metadata5">
    <rdf:RDF>
      <cc:Work
         rdf:about="">
        <dc:format>image/svg+xml</dc:format>
        <dc:type
           rdf:resource="http://purl.org/dc/dcmitype/StillImage" />
      </cc:Work>
    </rdf:RDF>
  </metadata>
  <g
     inkscape:label="11-Team force"
     inkscape:groupmode="layer"
     id="layer1">
    <path
       style="color:#000000;font-style:normal;font-variant:normal;font-weight:normal;font-stretch:normal;font-size:medium;line-height:normal;font-family:sans-serif;font-variant-ligatures:normal;font-variant-position:normal;font-variant-caps:normal;font-variant-numeric:normal;font-variant-alternates:normal;font-feature-settings:normal;text-indent:0;text-align:start;text-decoration:none;text-decoration-line:none;text-decoration-style:solid;text-decoration-color:#000000;letter-spacing:normal;word-spacing:normal;text-transform:none;writing-mode:lr-tb;direction:ltr;text-orientation:mixed;dominant-baseline:auto;baseline-shift:baseline;text-anchor:start;white-space:normal;shape-padding:0;clip-rule:nonzero;display:inline;overflow:visible;visibility:visible;opacity:1;isolation:auto;mix-blend-mode:normal;color-interpolation:sRGB;color-interpolation-filters:linearRGB;solid-color:#000000;solid-opacity:1;vector-effect:none;fill:#000000;fill-opacity:1;fill-rule:nonzero;stroke:none;stroke-width:1.99993789;stroke-linecap:round;stroke-linejoin:round;stroke-miterlimit:4;stroke-dasharray:none;stroke-dashoffset:0;stroke-opacity:1;paint-order:stroke fill markers;color-rendering:auto;image-rendering:auto;shape-rendering:auto;text-rendering:auto;enable-background:accumulate"
       d="m 32.007812,2 c -0.499994,0 -0.999999,0.3333291 -1,1 v 1 c 0,1.3335685 2.000001,1.3335685 2,0 V 3 c 0,-0.666822 -0.499968,-1 -1,-1 z m -5.152343,0.9550781 c -0.474047,0.050646 -0.901412,0.4348595 -0.900391,0.9980469 0.0026,0.2706142 0.11439,0.5283997 0.310547,0.7148438 l 0.996094,1.0039062 c 0.943785,0.9867209 2.403518,-0.4709826 1.417969,-1.4160156 L 27.675781,3.2578125 C 27.441451,3.0144109 27.139897,2.9248419 26.855469,2.9550781 Z m 10.207031,0.00195 c -0.253606,-0.011301 -0.520887,0.082078 -0.755859,0.328125 l -0.996094,0.9980469 c -0.185953,0.1806614 -0.29442,0.4264603 -0.302735,0.6855469 -0.02646,0.9089764 1.075322,1.3789601 1.712891,0.7304688 L 37.724609,4.6953125 C 38.458707,3.9864621 37.822904,2.993693 37.0625,2.9570312 Z M 8.3007812,6.7148438 8.5839844,7 8.2871094,7.296875 C 7.3335376,8.2421628 8.7597389,9.6683641 9.7050781,8.7148438 L 9.9980469,8.4199219 10.292969,8.7148438 C 11.238316,9.6631174 12.659237,8.2421961 11.710938,7.296875 L 11.414062,7 11.697266,6.7148438 c 0.659736,-0.6340816 0.192007,-1.7478047 -0.722657,-1.7207032 -0.259812,0.00775 -0.50637,0.1163168 -0.6875,0.3027344 L 9.9980469,5.5859375 9.7109375,5.296875 C 9.5298074,5.1104574 9.2832494,5.0018811 9.0214843,4.9941406 8.1068086,4.970759 7.6426192,6.0820726 8.3007812,6.7148438 Z m 44.0039068,0 L 52.587891,7 52.291016,7.296875 c -0.93718,0.9452878 0.472629,2.3550954 1.417968,1.4179688 l 0.292969,-0.2949219 0.294922,0.2949219 C 55.242222,9.6570641 56.657091,8.2421957 55.714844,7.296875 L 55.417969,7 55.701172,6.7148438 c 0.65972,-0.6340687 0.191989,-1.747768 -0.722656,-1.7207032 -0.259805,0.00775 -0.50637,0.1163168 -0.6875,0.3027344 L 54.001953,5.5859375 53.714844,5.296875 C 53.533729,5.1104574 53.287156,5.0018811 53.025391,4.9941406 52.110735,4.9707831 51.646539,6.0820855 52.304688,6.7148438 Z M 21.996094,5 C 19.767231,5.0020742 18,6.8018389 18,8.9980469 18,9.8000626 18.225631,10.535376 18.634766,11.164062 17.009001,12.534936 15.996094,14.648038 15.996094,17 c 0,0.297449 -3.8e-5,0.986091 0,1 0.0033,1.645681 1.329865,3.001953 3,3.001953 h 3 3.001953 c 0.399458,0 0.776313,-0.08206 1.123047,-0.222656 0.344315,1.271357 1.489326,2.222656 2.884765,2.222656 h 3 3 c 1.393891,0 2.537024,-0.949509 2.882813,-2.21875 0.343937,0.137953 0.717527,0.21875 1.113281,0.21875 h 3 3 c 1.670136,0 2.996674,-1.356234 3,-3.001953 v -1 c 0,-2.351962 -1.01287,-4.465064 -2.638672,-5.835938 0.409134,-0.628686 0.634766,-1.363999 0.634766,-2.1660151 0,-2.196208 -1.767231,-3.9959304 -3.996094,-3.9980469 -2.228821,0.00212 -3.996094,1.8018389 -3.996094,3.9980469 0,0.8020157 0.225594,1.5373291 0.634766,2.1660151 -0.975647,0.822691 -1.724077,1.915572 -2.171875,3.164063 -0.324283,-0.429317 -0.693751,-0.8202 -1.101562,-1.164063 0.409096,-0.628686 0.634765,-1.363999 0.634765,-2.166015 0,-2.1962082 -1.767267,-3.9958927 -3.996094,-3.998047 -2.228863,0.00215 -3.996093,1.8018388 -3.996093,3.998047 0,0.802016 0.225632,1.537329 0.634765,2.166015 -0.411099,0.346584 -0.781135,0.742384 -1.107422,1.175782 -0.447231,-1.25367 -1.198874,-2.350369 -2.177734,-3.175782 0.409096,-0.628686 0.634766,-1.3639994 0.634766,-2.1660151 0,-2.196208 -1.769184,-3.9958552 -3.998047,-3.9980469 z m -1.869141,7.535156 c 0.552492,0.28989 1.199522,0.464163 1.869141,0.464844 0.669619,-6.81e-4 1.318599,-0.174991 1.871094,-0.464844 1.286588,0.97217 2.130859,2.606639 2.130859,4.464844 v 0.996094 c 0,0.571389 -0.452157,1.005859 -1,1.005859 h -3.001953 -3 c -0.547842,0 -1,-0.43447 -1,-1.005859 V 17 c 0,-1.858205 0.84427,-3.492674 2.130859,-4.464844 z m 20.005859,0 c 0.552532,0.28989 1.199522,0.464163 1.869141,0.464844 0.669619,-6.81e-4 1.316612,-0.174991 1.869141,-0.464844 1.286589,0.97217 2.130859,2.606639 2.130859,4.464844 v 0.996094 c 0,0.571389 -0.452157,1.005859 -1,1.005859 h -3 -3 c -0.547842,0 -1,-0.43447 -1,-1.005859 V 17 c 0,-1.858205 0.844274,-3.492674 2.130859,-4.464844 z M 2.9609375,13 c -0.6795093,0.02872 -1.1327845,0.71262 -0.8945313,1.349609 l 1.2324219,3.292969 -0.8398437,3.144531 c -0.1353067,0.492596 0.1223859,1.007981 0.5976562,1.195313 l 7.5800784,2.945312 c 0.93934,0.365049 1.76778,-0.731183 1.160156,-1.535156 L 9.0566406,19.791016 10.076172,17.421875 c 0.210212,-0.49015 -0.0012,-1.059039 -0.4804689,-1.292969 l -6.15625,-3.02539 C 3.290988,13.029887 3.1265628,12.994304 2.9609375,13 Z m 58.0214845,0 c -0.178356,0.01134 -0.304665,0.0455 -0.419922,0.103516 l -6.15625,3.02539 c -0.479301,0.23393 -0.690682,0.802819 -0.480469,1.292969 l 1.019531,2.369141 -2.738281,3.601562 c -0.605185,0.802983 0.219898,1.896598 1.158203,1.535156 l 7.574219,-2.945312 c 0.478382,-0.184358 0.739839,-0.700576 0.605469,-1.195313 l -0.84961,-3.144531 1.240235,-3.292969 C 62.176681,13.708269 61.71703,13.020843 60.982422,13 Z m -30.845703,1.535156 c 0.552529,0.28989 1.199523,0.464164 1.86914,0.464844 0.66962,-6.8e-4 1.316612,-0.174992 1.869141,-0.464844 1.286589,0.97217 2.130859,2.606639 2.130859,4.464844 v 0.996094 c 0,0.571389 -0.452157,1.005859 -1,1.005859 h -3 -3 c -0.54788,0 -1,-0.43447 -1,-1.005859 V 19 c 0,-1.858205 0.844271,-3.492674 2.13086,-4.464844 z M 28.005859,25 C 26.338804,25.000019 25,26.359131 25,28.003906 v 0.171875 c -1.047647,-0.385058 -2.180007,-0.150794 -3.003906,0.578125 -0.524448,-0.473953 -1.224075,-0.75 -1.992188,-0.75 -0.77435,0 -1.470475,0.282702 -2.001953,0.761719 -0.529285,-0.479395 -1.22332,-0.761719 -1.998047,-0.761719 -0.775333,0 -1.472202,0.283483 -2.003906,0.763672 -0.529549,-0.480454 -1.224252,-0.763672 -2,-0.763672 -0.774312,0 -1.470476,0.282702 -2.0019531,0.761719 C 9.468724,28.28623 8.7747276,28.003906 8,28.003906 c -1.6669606,0 -3.0058594,1.359131 -3.0058594,3.003906 v 4.638672 C 4.7601879,36.026931 4.5167624,36.434925 4.2675781,36.873047 3.4845353,38.249968 2,41.025235 2,43 c 0,3.355049 1.414005,5.550444 2.7089844,7.234375 0.647509,0.841965 1.2602222,1.560123 1.6757812,2.183594 0.1485355,0.222614 0.2601613,0.425099 0.3535156,0.61914 -0.4334362,0.118678 -0.7346651,0.51159 -0.7363281,0.960938 v 6.998047 C 5.9998332,61.551412 6.4505334,62.002117 7.0058594,62 H 57.005859 c 0.552265,-0.0022 0.998211,-0.451642 0.996094,-1.003906 v -6.998047 c -0.0025,-0.531477 -0.408598,-0.983785 -0.966797,-0.994141 0.102047,-0.985209 0.468569,-1.773263 0.908203,-2.984375 0.519005,-1.429795 1.0625,-3.355905 1.0625,-6.466797 0.0038,-4.189304 -0.0078,-8.364804 -0.0078,-12.548828 C 58.998013,29.359093 57.66888,28 56.001953,28 55.227604,28 54.531477,28.282701 54,28.761719 53.470677,28.282362 52.776681,28 52.001953,28 51.227604,28 50.531477,28.282701 50,28.761719 49.470715,28.282362 48.776684,28 48.001953,28 47.227641,28 46.531477,28.286834 46,28.765625 45.470677,28.28623 44.776681,28 44.001953,28 c -0.35263,0 -0.686224,0.05648 -1,0.167969 V 28.003906 C 43.001953,26.359131 41.67282,25 40.005859,25 39.231551,25 38.527571,25.286872 37.996094,25.765625 37.466922,25.286267 36.780587,25 36.005859,25 35.231548,25 34.527571,25.286872 33.996094,25.765625 33.466809,25.286267 32.780587,25 32.005859,25 31.231509,25 30.527533,25.286872 29.996094,25.765625 29.466771,25.286267 28.780719,24.999981 28.005859,25 Z m 0,2 c 0.54172,0 0.990739,0.430791 0.994141,1.001953 v 4.994141 C 28.9966,33.567218 28.547579,34 28.005859,34 27.462098,33.999924 27.001953,33.563576 27.001953,32.992188 V 28.003906 C 27.001953,27.432517 27.462098,27 28.005859,27 Z m 4,0 c 0.54172,0 0.99074,0.430791 0.994141,1.001953 v 4.994141 C 32.9966,33.567218 32.547579,34 32.005859,34 31.462061,33.999924 31.001953,33.563576 31.001953,32.992188 V 28.003906 C 31.001953,27.432517 31.462061,27 32.005859,27 Z m 4,0 C 36.547617,27 36.996598,27.430791 37,28.001953 v 4.994141 C 36.9966,33.567218 36.547617,34 36.005859,34 35.462098,33.999924 35.001953,33.563576 35.001953,32.992188 V 28.003906 C 35.001953,27.432517 35.462098,27 36.005859,27 Z m 3.998047,0 c 0.54463,0 0.998047,0.432517 0.998047,1.003906 0.0027,1.676296 -0.0078,3.343954 -0.0078,5.017578 -0.01512,0.55578 -0.456452,0.97461 -0.990235,0.97461 C 39.460225,33.996132 39,33.563576 39,32.992188 V 28.003906 C 39,27.432517 39.459318,27 40.003906,27 Z m -15.894531,2.996094 c 0.126274,0.01512 0.249895,0.05375 0.363281,0.11914 0.230929,0.133418 0.33562,0.289892 0.392578,0.542969 0.05707,0.253228 0.02644,0.630403 -0.105468,1.011719 l -1.738282,4.974609 c -0.15874,0.453279 0.02266,0.966462 0.4375,1.207031 0,0 2.801866,1.633648 3.539063,4.384766 0.328063,1.308775 2.292648,0.790885 1.933594,-0.509766 -0.7567,-2.823911 -2.999968,-4.568618 -3.765625,-5.136718 l 0.564453,-1.625 C 26.278009,35.607553 27.090685,36 28.005859,36 28.780587,36 29.474621,35.717677 30.003906,35.238281 30.535383,35.717261 31.231509,36 32.005859,36 32.780586,36 33.474583,35.717677 34.003906,35.238281 34.535383,35.717261 35.231548,36 36.005859,36 36.780587,36 37.474583,35.717677 38.003906,35.238281 38.535346,35.717261 39.23151,36 40.005859,36 c 0.349607,0 0.679444,-0.05641 0.990235,-0.166016 0.0076,1.38565 0.0039,2.778955 0.0039,4.167969 0,2.889071 -0.458256,4.461061 -0.9375,5.78125 -0.380447,1.048101 -0.82047,2.007865 -0.988281,3.21875 H 23.8125 c -0.167433,-0.618104 -0.45891,-1.185304 -0.802734,-1.701172 -0.521689,-0.78274 -1.155659,-1.506058 -1.757813,-2.289062 -1.154684,-1.501455 -2.289062,-3.331972 -2.289062,-6.015625 0,-1.025197 0.801714,-3.046401 2.009765,-5.138672 1.051956,-1.822046 2.095703,-3.314453 2.095703,-3.314453 0.254741,-0.40131 0.662194,-0.588754 1.041016,-0.546875 z M 8.0058594,30 C 8.5475791,29.99999 8.9966362,30.432782 9,31.003906 v 0.992188 c -0.731263,0.0076 -1.4391303,0.279682 -1.9980469,0.785156 V 31.007812 C 7.0019531,30.436424 7.462061,30.00001 8.0058594,30 Z m 3.9980466,0 C 12.547592,29.999963 13,30.436424 13,31.007812 l -0.0039,4.988282 C 12.996094,36.567483 12.543761,37 12,37 c -0.185953,0 -0.356367,-0.04129 -0.507812,-0.130859 l 0.185546,-0.550782 c 0.231307,-0.665348 0.322362,-1.390809 0.16211,-2.103515 C 11.715497,33.660577 11.435288,33.148739 11,32.751953 V 31.007812 C 11,30.436424 11.460183,30.000037 12.003906,30 Z m 4,0 c 0.541757,-10e-6 0.99074,0.434696 0.994141,1.005859 V 36 c -0.0034,0.571048 -0.452384,1 -0.994141,1 C 15.460145,37 15,36.567483 15,35.996094 V 31.007812 C 15,30.436424 15.460145,30.00001 16.003906,30 Z m 27.998047,0 c 0.541758,-1.9e-5 0.990739,0.430828 0.994141,1.001953 v 4.994141 C 44.992696,36.567218 44.543711,37 44.001953,37 c -0.537109,0 -0.988926,-0.427286 -1,-0.988281 v -5.027344 c 0.01134,-0.560957 0.462891,-0.984356 1,-0.984375 z m 4,0 c 0.54172,-10e-6 0.990777,0.430828 0.994141,1.001953 v 4.994141 C 48.992696,36.567218 48.543673,37 48.001953,37 47.458155,37 46.998047,36.563576 46.998047,35.992188 v -4.988282 c 0,-0.571389 0.460108,-1.003896 1.003906,-1.003906 z m 4,0 c 0.54172,-10e-6 0.990739,0.430828 0.994141,1.001953 v 4.994141 C 52.992696,36.567218 52.543673,37 52.001953,37 51.458155,37 50.998047,36.563576 50.998047,35.992188 v -4.988282 c 0,-0.571389 0.460108,-1.003896 1.003906,-1.003906 z m 4,0 c 0.543799,-10e-6 0.996094,0.432517 0.996094,1.003906 v 4.988282 C 56.998047,36.563576 56.545752,37 56.001953,37 c -0.54376,0 -1.003906,-0.436424 -1.003906,-1.007812 v -4.988282 c 0,-0.571389 0.460146,-1.003896 1.003906,-1.003906 z m -35.998047,0.0039 c 0.308844,-1e-6 0.587762,0.136447 0.771485,0.361328 -0.410721,0.619616 -0.95628,1.493076 -1.511719,2.455078 C 19.197912,32.935968 19.074457,33.158557 19,33.292969 v -2.285157 c 0,-0.571351 0.426905,-1.003905 1.003906,-1.003906 z M 9.1445312,34 c 0.1262176,0.01504 0.2498955,0.05375 0.3632813,0.119141 0.1969134,0.113763 0.3280727,0.28572 0.3847656,0.539062 0.056693,0.253228 0.026437,0.630403 -0.1054687,1.011719 l -1.734375,4.990234 c -0.1587402,0.453279 0.02644,0.954746 0.4433594,1.195313 0,0 2.7999122,1.633647 3.5371092,4.384765 0.328063,1.308775 2.292649,0.790884 1.933594,-0.509765 -0.756699,-2.82395 -2.999931,-4.568656 -3.765625,-5.136719 l 0.626953,-1.822266 C 11.185668,38.924933 11.585008,39 12,39 12.775748,39 13.47045,38.724481 14,38.244141 14.531704,38.724178 15.228574,39 16.003906,39 c 0.343937,0 0.664297,-0.05004 0.970703,-0.15625 -0.0022,0.05594 -0.0039,0.09754 -0.0039,0.152344 0,3.355011 1.406154,5.550482 2.701172,7.234375 0.647508,0.841965 1.260222,1.560085 1.675781,2.183593 0.151559,0.227152 0.264887,0.433342 0.359375,0.63086 -0.418318,0.12926 -0.703981,0.515342 -0.705078,0.953125 v 3.003906 H 8.8476562 C 8.6798452,52.385474 8.3899049,51.819384 8.046875,51.304688 7.525149,50.521908 6.8912546,49.798668 6.2890625,49.015625 5.1344168,47.51417 4.0019531,45.722318 4.0019531,43 c 0,-1.025197 0.7713401,-2.997154 2.0078125,-5.138672 C 7.0617593,36.039292 8.1054687,34.546875 8.1054688,34.546875 8.3602089,34.145565 8.7383643,33.955136 9.1445312,34 Z M 46,38.238281 C 46.530683,38.717261 47.227604,39 48.001953,39 48.776681,39 49.470677,38.717639 50,38.238281 50.531477,38.717223 51.227604,39 52.001953,39 52.776681,39 53.470677,38.717639 54,38.238281 54.531439,38.717223 55.227604,39 56.001953,39 c 0.35452,0 0.689336,-0.05339 1.003906,-0.166016 v 4.71875 c 0,2.842205 -0.466068,4.461061 -0.945312,5.78125 -0.426444,1.174904 -0.929519,2.235642 -1.035156,3.667969 H 42.005859 v -3.003906 c -0.0028,-0.513902 -0.394615,-0.942006 -0.90625,-0.990235 0.150804,-0.79525 0.464511,-1.510426 0.837891,-2.539062 0.335244,-0.923528 0.689806,-2.076535 0.892578,-3.599609 0.836296,0.751937 1.809337,1.879767 2.208984,3.371093 0.328065,1.308964 2.292838,0.790959 1.933594,-0.509765 -0.760856,-2.839446 -3.017029,-4.632648 -3.980468,-5.292969 0.0026,-0.146646 0.01172,-0.283459 0.01172,-0.435547 V 38.832031 C 43.317607,38.943527 43.651197,39 44.003906,39 44.77863,39 45.471471,38.717639 46,38.238281 Z"
       transform="scale(0.26458334)"
       id="path884"
       inkscape:connector-curvature="0"
       sodipodi:nodetypes="cccccccccccccccccccccccccccccccccccccccccccccccccccccccccccccccccccccccccccccccccccccccccccccccccccccccccccccccccccccccccccccccccccccccccccccccccccccccccccccccccccccccccccccccccccccccccccccccccccccccccccccccccccccccccccccccccccccccccccccccccccccccccccccccccccccccccccccccccccccccccccccccccccccccccccccccccccccccccccccccccccccccccccccccccccccccccc" />
  </g>
</svg>
