<?xml version="1.0" encoding="UTF-8" standalone="no"?> <svg width="512" height="512" viewBox="0 0 512 512" fill="none" xmlns="http://www.w3.org/2000/svg">
<path d="M480 144.001H357.2C360.818 128.728 360.931 112.834 357.532 97.5109C354.134 82.1876 347.311 67.8324 337.575 55.5211C327.839 43.2098 315.443 33.2619 301.315 26.4229C287.188 19.5839 271.696 16.0312 256 16.0312C240.304 16.0312 224.812 19.5839 210.685 26.4229C196.557 33.2619 184.161 43.2098 174.425 55.5211C164.689 67.8324 157.866 82.1876 154.468 97.5109C151.069 112.834 151.182 128.728 154.8 144.001H32C29.8783 144.001 27.8434 144.844 26.3431 146.344C24.8429 147.845 24 149.88 24 152.001V240.001C24.0119 250.606 28.23 260.773 35.7289 268.272C43.2278 275.771 53.395 279.989 64 280.001V488.001C64 490.123 64.8429 492.158 66.3431 493.658C67.8434 495.158 69.8783 496.001 72 496.001H440C442.122 496.001 444.157 495.158 445.657 493.658C447.157 492.158 448 490.123 448 488.001V280.001C458.605 279.989 468.772 275.771 476.271 268.272C483.77 260.773 487.988 250.606 488 240.001V152.001C488 149.88 487.157 147.845 485.657 146.344C484.157 144.844 482.122 144.001 480 144.001ZM472 208.001H424V160.001H472V208.001ZM408 240.001C408 246.366 405.471 252.471 400.971 256.972C396.47 261.473 390.365 264.001 384 264.001C377.635 264.001 371.53 261.473 367.029 256.972C362.529 252.471 360 246.366 360 240.001V224.001H408V240.001ZM344 240.001C344 246.366 341.471 252.471 336.971 256.972C332.47 261.473 326.365 264.001 320 264.001C313.635 264.001 307.53 261.473 303.029 256.972C298.529 252.471 296 246.366 296 240.001V224.001H344V240.001ZM280 240.001C280 246.366 277.471 252.471 272.971 256.972C268.47 261.473 262.365 264.001 256 264.001C249.635 264.001 243.53 261.473 239.029 256.972C234.529 252.471 232 246.366 232 240.001V224.001H280V240.001ZM216 240.001C216 246.366 213.471 252.471 208.971 256.972C204.47 261.473 198.365 264.001 192 264.001C185.635 264.001 179.53 261.473 175.029 256.972C170.529 252.471 168 246.366 168 240.001V224.001H216V240.001ZM152 240.001C152 246.366 149.471 252.471 144.971 256.972C140.47 261.473 134.365 264.001 128 264.001C121.635 264.001 115.53 261.473 111.029 256.972C106.529 252.471 104 246.366 104 240.001V224.001H152V240.001ZM168 208.001V175.364C176.319 188.533 187.468 199.682 200.637 208.001H168ZM311.363 208.001C324.532 199.682 335.681 188.533 344 175.364V208.001H311.363ZM408 160.001V208.001H360V160.001H408ZM256 32.0012C273.405 32.0012 290.419 37.1623 304.89 46.8319C319.362 56.5015 330.641 70.2452 337.301 86.3251C343.962 102.405 345.705 120.099 342.309 137.169C338.914 154.24 330.532 169.92 318.225 182.227C305.918 194.534 290.238 202.915 273.168 206.31C256.098 209.706 238.404 207.963 222.324 201.303C206.244 194.642 192.5 183.363 182.831 168.891C173.161 154.42 168 137.406 168 120.001C168.026 96.6703 177.306 74.3025 193.804 57.8051C210.301 41.3076 232.669 32.0277 256 32.0012V32.0012ZM152 160.001V208.001H104V160.001H152ZM40 160.001H88V208.001H40V160.001ZM40 240.001V224.001H88V240.001C88 246.366 85.4714 252.471 80.9706 256.972C76.4697 261.473 70.3652 264.001 64 264.001C57.6348 264.001 51.5303 261.473 47.0294 256.972C42.5286 252.471 40 246.366 40 240.001ZM392 448.001H312V312.001H392V448.001ZM304 480.001V464.001H400V480.001H304ZM432 480.001H416V462.001C415.996 459.355 415.243 456.764 413.827 454.529C412.411 452.294 410.391 450.505 408 449.371V304.001C408 301.879 407.157 299.845 405.657 298.344C404.157 296.844 402.122 296.001 400 296.001H304C301.878 296.001 299.843 296.844 298.343 298.344C296.843 299.845 296 301.879 296 304.001V449.371C293.609 450.505 291.589 452.294 290.173 454.529C288.757 456.764 288.004 459.355 288 462.001V480.001H80V276.651C86.3347 273.871 91.8455 269.505 96 263.973C99.7207 268.949 104.55 272.988 110.105 275.77C115.66 278.553 121.787 280.001 128 280.001C134.213 280.001 140.34 278.553 145.895 275.77C151.45 272.988 156.279 268.949 160 263.973C163.721 268.949 168.55 272.988 174.105 275.77C179.66 278.553 185.787 280.001 192 280.001C198.213 280.001 204.34 278.553 209.895 275.77C215.45 272.988 220.279 268.949 224 263.973C227.721 268.949 232.55 272.988 238.105 275.77C243.66 278.553 249.787 280.001 256 280.001C262.213 280.001 268.34 278.553 273.895 275.77C279.45 272.988 284.279 268.949 288 263.973C291.721 268.949 296.55 272.988 302.105 275.77C307.66 278.553 313.787 280.001 320 280.001C326.213 280.001 332.34 278.553 337.895 275.77C343.45 272.988 348.279 268.949 352 263.973C355.721 268.949 360.55 272.988 366.105 275.77C371.66 278.553 377.787 280.001 384 280.001C390.213 280.001 396.34 278.553 401.895 275.77C407.45 272.988 412.279 268.949 416 263.973C420.155 269.505 425.665 273.871 432 276.651V480.001ZM472 240.001C472 246.366 469.471 252.471 464.971 256.972C460.47 261.473 454.365 264.001 448 264.001C441.635 264.001 435.53 261.473 431.029 256.972C426.529 252.471 424 246.366 424 240.001V224.001H472V240.001ZM256 296.001H104C101.878 296.001 99.8434 296.844 98.3431 298.344C96.8429 299.845 96 301.879 96 304.001V456.001C96 458.123 96.8429 460.158 98.3431 461.658C99.8434 463.158 101.878 464.001 104 464.001H256C258.122 464.001 260.157 463.158 261.657 461.658C263.157 460.158 264 458.123 264 456.001V304.001C264 301.879 263.157 299.845 261.657 298.344C260.157 296.844 258.122 296.001 256 296.001ZM248 448.001H112V312.001H248V448.001ZM208 152.001H224V168.001C224 170.123 224.843 172.158 226.343 173.658C227.843 175.158 229.878 176.001 232 176.001H280C282.122 176.001 284.157 175.158 285.657 173.658C287.157 172.158 288 170.123 288 168.001V152.001H304C306.122 152.001 308.157 151.158 309.657 149.658C311.157 148.158 312 146.123 312 144.001V96.0012C312 93.8795 311.157 91.8447 309.657 90.3444C308.157 88.8441 306.122 88.0012 304 88.0012H288V72.0012C288 69.8795 287.157 67.8447 285.657 66.3444C284.157 64.8441 282.122 64.0012 280 64.0012H232C229.878 64.0012 227.843 64.8441 226.343 66.3444C224.843 67.8447 224 69.8795 224 72.0012V88.0012H208C205.878 88.0012 203.843 88.8441 202.343 90.3444C200.843 91.8447 200 93.8795 200 96.0012V144.001C200 146.123 200.843 148.158 202.343 149.658C203.843 151.158 205.878 152.001 208 152.001ZM216 104.001H232C234.122 104.001 236.157 103.158 237.657 101.658C239.157 100.158 240 98.123 240 96.0012V80.0012H272V96.0012C272 98.123 272.843 100.158 274.343 101.658C275.843 103.158 277.878 104.001 280 104.001H296V136.001H280C277.878 136.001 275.843 136.844 274.343 138.344C272.843 139.845 272 141.88 272 144.001V160.001H240V144.001C240 141.88 239.157 139.845 237.657 138.344C236.157 136.844 234.122 136.001 232 136.001H216V104.001ZM152 432.001H216C218.122 432.001 220.157 431.158 221.657 429.658C223.157 428.158 224 426.123 224 424.001V392.285C224.016 386.274 222.083 380.42 218.491 375.6C220.093 375.075 221.488 374.058 222.477 372.694C223.466 371.329 223.999 369.687 224 368.001V336.001C224 333.879 223.157 331.845 221.657 330.344C220.157 328.844 218.122 328.001 216 328.001H152C149.878 328.001 147.843 328.844 146.343 330.344C144.843 331.845 144 333.879 144 336.001V368.001C144 369.687 144.533 371.329 145.523 372.694C146.512 374.059 147.907 375.076 149.509 375.601C145.917 380.42 143.984 386.274 144 392.285V424.001C144 426.123 144.843 428.158 146.343 429.658C147.843 431.158 149.878 432.001 152 432.001ZM171.314 376.001H196.686L204.486 383.801C204.642 383.956 204.781 384.124 204.927 384.286H163.074C163.22 384.124 163.359 383.956 163.515 383.801L171.314 376.001ZM160 416.001V400.285H208V416.001H160ZM160 344.001H208V360.001H160V344.001ZM328 376.001C328 373.879 328.843 371.845 330.343 370.344C331.843 368.844 333.878 368.001 336 368.001H344C346.122 368.001 348.157 368.844 349.657 370.344C351.157 371.845 352 373.879 352 376.001C352 378.123 351.157 380.158 349.657 381.658C348.157 383.158 346.122 384.001 344 384.001H336C333.878 384.001 331.843 383.158 330.343 381.658C328.843 380.158 328 378.123 328 376.001Z" fill="url(#paint0_linear_15_45333)"/>
<defs>
<linearGradient id="paint0_linear_15_45333" x1="64.343" y1="491.658" x2="447.657" y2="108.344" gradientUnits="userSpaceOnUse">
<stop stop-color="#41DFD0"/>
<stop offset="1" stop-color="#EE83EF"/>
</linearGradient>
</defs>
</svg>
