<?xml version="1.0" encoding="UTF-8" standalone="no"?> <svg id="Layer_1" data-name="Layer 1" xmlns="http://www.w3.org/2000/svg" viewBox="0 0 128 128"><defs><style>.cls-1{fill:#2d3e50;}.cls-2{fill:#1d75b8;}</style></defs><title>a</title><path class="cls-1" d="M126.00477,71.92932a5.04153,5.04153,0,0,0-2.70855-3.65626c-4.72171-2.34964-15.07361-5.82645-15.07361-5.82645V59.03152l.286-.21871a9.8944,9.8944,0,0,0,3.75719-6.28629l.05606-.36448h.286a3.80975,3.80975,0,0,0,3.53287-2.37768,4.17245,4.17245,0,0,0,.52152-2.01319,3.80319,3.80319,0,0,0-.27477-1.41874,1.966,1.966,0,0,0-.76264-1.23371l-.95894-.57761.24113-1.03742c1.72158-7.52558-4.10487-14.29973-11.92764-14.4848-.19068-.00561-.38132-.00561-.56639,0-.18506-.00561-.37571-.00561-.56639,0-7.8228.18506-13.64925,6.95922-11.92206,14.4848l.23552,1.03742-.95329.57761a1.97343,1.97343,0,0,0-.76826,1.23371,3.80322,3.80322,0,0,0-.27481,1.41874,4.17248,4.17248,0,0,0,.52155,2.01319A3.82318,3.82318,0,0,0,92.22376,52.162h.28039l.05606.36448a9.8944,9.8944,0,0,0,3.75719,6.28629l.286.21871v3.41509s-10.3519,3.47681-15.068,5.82645a5.0362,5.0362,0,0,0-1.65429,1.32342c4.26187,1.55335,9.44341,3.54971,12.724,5.18158a9.93494,9.93494,0,0,1,5.333,7.18351c.14019.82432.26916,1.716.38132,2.64122H126.9581A109.931,109.931,0,0,0,126.00477,71.92932Z"/><path class="cls-2" d="M91.10331,77.78921c-6.12364-3.05266-19.563-7.56384-19.563-7.56384h-1.137l-3.67741,4.90626,3.44771,23.8537H95.86023a142.23323,142.23323,0,0,0-1.23573-16.453A6.54043,6.54043,0,0,0,91.10331,77.78921Z"/><path class="cls-2" d="M75.89961,56.03136l1.85058-9.53874A12.76963,12.76963,0,0,0,65.09909,32.00221H62.90091A12.76963,12.76963,0,0,0,50.24981,46.49262l1.85058,9.53874a12.12264,12.12264,0,0,0,23.79921,0Z"/><path class="cls-1" d="M35.39492,74.77806c3.28055-1.63187,8.46209-3.62822,12.724-5.18158a5.0362,5.0362,0,0,0-1.65429-1.32342c-4.71609-2.34964-15.068-5.82645-15.068-5.82645V59.03152l.286-.21871a9.8944,9.8944,0,0,0,3.75719-6.28629l.05606-.36448h.28039a3.82318,3.82318,0,0,0,3.53848-2.37768,4.17248,4.17248,0,0,0,.52155-2.01319,3.80322,3.80322,0,0,0-.27481-1.41874,1.97343,1.97343,0,0,0-.76826-1.23371l-.95329-.57761.23552-1.03742c1.72719-7.52558-4.09926-14.29973-11.92206-14.4848-.19068-.00561-.38132-.00561-.56639,0-.18506-.00561-.37571-.00561-.56639,0-7.82277.18506-13.64922,6.95922-11.92764,14.4848l.24113,1.03742-.95894.57761a1.966,1.966,0,0,0-.76264,1.23371,3.80319,3.80319,0,0,0-.27477,1.41874,4.17245,4.17245,0,0,0,.52152,2.01319A3.80975,3.80975,0,0,0,15.39212,52.162h.286l.05606.36448a9.8944,9.8944,0,0,0,3.75719,6.28629l.286.21871v3.41509S9.42548,65.92342,4.70377,68.27306a5.04153,5.04153,0,0,0-2.70855,3.65626A109.93094,109.93094,0,0,0,1.0419,84.60279H29.68063c.11216-.92526.24113-1.8169.38132-2.64122A9.93494,9.93494,0,0,1,35.39492,74.77806Z"/><path class="cls-2" d="M56.45974,70.22536s-13.43941,4.51118-19.563,7.56384a6.54043,6.54043,0,0,0-3.5212,4.74313,142.23323,142.23323,0,0,0-1.23573,16.453H57.82642l3.44771-23.8537-3.67741-4.90626Z"/></svg>