<?xml version="1.0" encoding="UTF-8" standalone="no"?> <svg width="512" height="512" viewBox="0 0 512 512" fill="none" xmlns="http://www.w3.org/2000/svg">
<path d="M367.645 150.956L373.345 160.461L363.713 156.849L367.645 150.956ZM332.245 162.137L381.237 180.509L354.8 240H348.9C349.08 239.677 349.265 239.358 349.432 239.025C351.141 235.608 352.07 231.854 352.153 228.034C352.235 224.215 351.47 220.424 349.91 216.936C348.351 213.448 346.037 210.349 343.136 207.864C340.235 205.378 336.818 203.567 333.132 202.561L316.325 197.977L332.245 162.137ZM398.454 342.228L386.58 354.106L359.311 292.751C358.682 291.337 357.657 290.135 356.36 289.292C355.062 288.449 353.548 288 352 288H257.08L282.931 256.979L364.6 277.4C366.371 277.837 368.018 278.674 369.414 279.847C370.811 281.02 371.919 282.498 372.655 284.167L398.454 342.228ZM216 131.314L227.313 120H264V136C263.986 139.785 263.082 143.513 261.361 146.884C259.64 150.255 257.151 153.174 254.094 155.406C249.876 153.083 245.122 151.91 240.308 152.005C235.494 152.1 230.79 153.46 226.667 155.948C223.383 153.759 220.691 150.793 218.83 147.312C216.97 143.832 215.997 139.946 216 136V131.314ZM328.919 218C331.407 218.671 333.531 220.293 334.834 222.516C336.138 224.738 336.516 227.384 335.887 229.883C335.258 232.381 333.672 234.533 331.472 235.874C329.272 237.215 326.633 237.637 324.124 237.051L247.863 219.451L266.374 200.939L328.919 218ZM218.47 235.05C217.609 233.33 216.426 230.05 215.675 224.208C214.603 215.706 215.209 207.077 217.457 198.808L224.239 225.936C224.25 225.979 224.265 226.006 224.276 226.047C224.287 226.088 224.295 226.147 224.31 226.202C224.702 227.576 225.456 228.82 226.491 229.805C227.527 230.789 228.808 231.478 230.2 231.8L264.923 239.813L270.029 247.472L241.684 281.486L218.47 235.05ZM237.063 207.623L229.788 182.168C229.363 180.487 229.329 178.731 229.688 177.035C230.048 175.339 230.792 173.748 231.863 172.385C231.994 172.217 232.142 172.068 232.281 171.908C232.855 171.488 233.369 170.993 233.811 170.436C235.933 168.768 238.578 167.908 241.276 168.007C243.973 168.107 246.548 169.16 248.541 170.98C248.571 171.006 248.598 171.037 248.629 171.063C250.24 172.564 251.381 174.5 251.913 176.637L255.14 189.546L237.063 207.623ZM205.182 82.649C206.932 80.0297 209.493 78.0574 212.473 77.0352C215.452 76.013 218.685 75.9975 221.674 76.991L229.474 79.591C231.301 80.2 233.286 80.1296 235.065 79.3928C236.844 78.656 238.298 77.3022 239.159 75.58L245.434 63.031C247.176 59.5462 250.157 56.8374 253.792 55.4354C257.427 54.0334 261.455 54.0392 265.086 55.4516C268.717 56.8641 271.689 59.5814 273.422 63.0712C275.154 66.561 275.521 70.5719 274.45 74.318L265.966 104H224C222.949 104 221.909 104.207 220.938 104.609C219.968 105.011 219.086 105.6 218.343 106.343L210.922 113.764L203.8 95.951C202.934 93.788 202.607 91.4468 202.848 89.1293C203.089 86.8119 203.89 84.5878 205.182 82.649V82.649ZM200.634 231.333C201.321 235.097 202.506 238.753 204.158 242.205L207.058 248L187.058 288H172.835L200.634 231.333ZM120 336H320C322.122 336 324.157 336.843 325.657 338.343C327.157 339.843 328 341.878 328 344C328 346.122 327.157 348.157 325.657 349.657C324.157 351.157 322.122 352 320 352H120V336ZM328 448H128C125.878 448 123.843 447.157 122.343 445.657C120.843 444.157 120 442.122 120 440C120 437.878 120.843 435.843 122.343 434.343C123.843 432.843 125.878 432 128 432H328V448ZM336 416H128.546C115.119 416 103.776 426.987 104.003 440.412C104.118 446.703 106.696 452.697 111.183 457.108C115.67 461.518 121.708 463.993 128 464H336C338.122 464 340.157 464.843 341.657 466.343C343.157 467.843 344 469.878 344 472C344 474.122 343.157 476.157 341.657 477.657C340.157 479.157 338.122 480 336 480H128.751C106.907 480 88.528 462.8 88.011 440.964C87.8886 435.633 88.8322 430.331 90.7862 425.37C92.7403 420.409 95.6656 415.888 99.3904 412.072C103.115 408.256 107.565 405.223 112.477 403.15C117.39 401.077 122.668 400.006 128 400H336C338.122 400 340.157 400.843 341.657 402.343C343.157 403.843 344 405.878 344 408C344 410.122 343.157 412.157 341.657 413.657C340.157 415.157 338.122 416 336 416ZM319.249 384H112C109.878 384 107.843 383.157 106.343 381.657C104.843 380.157 104 378.122 104 376C104 373.878 104.843 371.843 106.343 370.343C107.843 368.843 109.878 368 112 368H319.454C332.881 368 344.224 357.013 343.997 343.588C343.882 337.297 341.304 331.303 336.817 326.892C332.33 322.482 326.292 320.007 320 320H112C109.878 320 107.843 319.157 106.343 317.657C104.843 316.157 104 314.122 104 312C104 309.878 104.843 307.843 106.343 306.343C107.843 304.843 109.878 304 112 304H320C325.332 304.006 330.61 305.077 335.523 307.15C340.435 309.223 344.885 312.256 348.61 316.072C352.334 319.888 355.26 324.409 357.214 329.37C359.168 334.331 360.111 339.633 359.989 344.964C359.472 366.8 341.093 384 319.249 384ZM432 377.223L397.428 382.985L393.153 370.161L409.58 353.734L432 364.944V377.223ZM387.272 277.665C385.555 273.77 382.967 270.321 379.708 267.584C376.449 264.846 372.605 262.892 368.472 261.873L344.985 256H378.264C380.513 255.999 382.717 256.631 384.624 257.824L438.824 291.702L434.676 308.302L391.637 286.31C391.42 286.199 391.199 286.103 390.977 286.01L387.272 277.665ZM467.166 318.545L449.7 314.179L454.868 293.51L464.613 288.637L477.42 292.906L467.166 318.545ZM128 204.687L116.687 216H107.313L96 204.687V184H128V204.687ZM112 80C122.605 80.0119 132.772 84.23 140.271 91.7289C147.77 99.2278 151.988 109.395 152 120C152.05 137.906 145.115 155.127 132.668 168H120V139.314L133.657 125.657C135.157 124.157 136 122.122 136 120C136 117.878 135.157 115.843 133.657 114.343C132.157 112.843 130.122 112 128 112C125.878 112 123.843 112.843 122.343 114.343L112 124.687L101.657 114.343C100.157 112.843 98.1218 112 96 112C93.8782 112 91.8433 112.843 90.343 114.343C88.8427 115.843 87.9998 117.878 87.9998 120C87.9998 122.122 88.8427 124.157 90.343 125.657L104 139.314V168H91.332C78.8854 155.127 71.95 137.906 72 120C72.0119 109.395 76.23 99.2278 83.7289 91.7289C91.2278 84.23 101.395 80.0119 112 80V80ZM112 48C114.122 48 116.157 47.1571 117.657 45.6569C119.157 44.1566 120 42.1217 120 40V24C120 21.8783 119.157 19.8434 117.657 18.3431C116.157 16.8429 114.122 16 112 16C109.878 16 107.843 16.8429 106.343 18.3431C104.843 19.8434 104 21.8783 104 24V40C104 42.1217 104.843 44.1566 106.343 45.6569C107.843 47.1571 109.878 48 112 48ZM69.072 53.646C69.5935 54.5632 70.2912 55.3681 71.125 56.0145C71.9588 56.661 72.9123 57.136 73.9305 57.4125C74.9486 57.6889 76.0114 57.7612 77.0577 57.6252C78.1039 57.4892 79.1129 57.1476 80.0266 56.6201C80.9403 56.0926 81.7406 55.3895 82.3815 54.5514C83.0224 53.7133 83.4911 52.7568 83.7608 51.7368C84.0305 50.7168 84.0957 49.6535 83.9528 48.6082C83.8099 47.5629 83.4616 46.5562 82.928 45.646L74.928 31.79C74.4065 30.8728 73.7088 30.0679 72.875 29.4215C72.0412 28.775 71.0877 28.2999 70.0695 28.0235C69.0514 27.7471 67.9886 27.6748 66.9423 27.8108C65.8961 27.9468 64.8871 28.2884 63.9734 28.8159C63.0597 29.3434 62.2594 30.0465 61.6185 30.8846C60.9776 31.7227 60.5089 32.6792 60.2392 33.6992C59.9695 34.7192 59.9043 35.7825 60.0472 36.8278C60.1901 37.8731 60.5384 38.8798 61.072 39.79L69.072 53.646ZM31.79 74.928L45.646 82.928C46.5562 83.4616 47.5629 83.8099 48.6082 83.9528C49.6535 84.0957 50.7168 84.0305 51.7368 83.7608C52.7568 83.4911 53.7133 83.0224 54.5514 82.3815C55.3895 81.7406 56.0926 80.9403 56.6201 80.0266C57.1476 79.1129 57.4892 78.1039 57.6252 77.0577C57.7612 76.0114 57.6889 74.9486 57.4125 73.9305C57.136 72.9123 56.661 71.9588 56.0145 71.125C55.3681 70.2912 54.5632 69.5935 53.646 69.072L39.79 61.072C37.9535 60.0279 35.7786 59.7525 33.7399 60.306C31.7011 60.8595 29.9641 62.1969 28.9078 64.0264C27.8515 65.8559 27.5617 68.029 28.1017 70.0714C28.6417 72.1137 29.9675 73.8596 31.79 74.928V74.928ZM48 112C48 109.878 47.1571 107.843 45.6569 106.343C44.1566 104.843 42.1217 104 40 104H24C21.8783 104 19.8434 104.843 18.3431 106.343C16.8429 107.843 16 109.878 16 112C16 114.122 16.8429 116.157 18.3431 117.657C19.8434 119.157 21.8783 120 24 120H40C42.1217 120 44.1566 119.157 45.6569 117.657C47.1571 116.157 48 114.122 48 112ZM45.646 141.072L31.79 149.072C30.8728 149.593 30.0679 150.291 29.4215 151.125C28.775 151.959 28.2999 152.912 28.0235 153.93C27.7471 154.949 27.6748 156.011 27.8108 157.058C27.9468 158.104 28.2884 159.113 28.8159 160.027C29.3434 160.94 30.0465 161.741 30.8846 162.381C31.7227 163.022 32.6792 163.491 33.6992 163.761C34.7192 164.03 35.7825 164.096 36.8278 163.953C37.8731 163.81 38.8798 163.462 39.79 162.928L53.646 154.928C55.4685 153.86 56.7943 152.114 57.3343 150.071C57.8743 148.029 57.5845 145.856 56.5282 144.026C55.4719 142.197 53.7349 140.86 51.6961 140.306C49.6574 139.753 47.4825 140.028 45.646 141.072ZM144 56.574C145.837 57.6348 148.021 57.9223 150.07 57.3732C152.12 56.8241 153.867 55.4834 154.928 53.646L162.928 39.79C163.462 38.8798 163.81 37.8731 163.953 36.8278C164.096 35.7825 164.03 34.7192 163.761 33.6992C163.491 32.6792 163.022 31.7227 162.381 30.8846C161.741 30.0465 160.94 29.3434 160.027 28.8159C159.113 28.2884 158.104 27.9468 157.058 27.8108C156.011 27.6748 154.949 27.7471 153.93 28.0235C152.912 28.2999 151.959 28.775 151.125 29.4215C150.291 30.0679 149.593 30.8728 149.072 31.79L141.072 45.646C140.011 47.4834 139.724 49.667 140.273 51.7164C140.822 53.7658 142.163 55.5131 144 56.574Z" fill="url(#paint0_linear_3_7691)"/>
<defs>
<linearGradient id="paint0_linear_3_7691" x1="43.794" y1="412.099" x2="336.291" y2="119.602" gradientUnits="userSpaceOnUse">
<stop stop-color="#41DFD0"/>
<stop offset="1" stop-color="#EE83EF"/>
</linearGradient>
</defs>
</svg>
