<?xml version="1.0" encoding="iso-8859-1"?>
<!-- Generator: Adobe Illustrator 22.1.0, SVG Export Plug-In . SVG Version: 6.00 Build 0)  -->
<svg version="1.1" id="Layer_1_1_" xmlns="http://www.w3.org/2000/svg" xmlns:xlink="http://www.w3.org/1999/xlink" x="0px" y="0px"
	 viewBox="0 0 64 64" style="enable-background:new 0 0 64 64;" xml:space="preserve">
<path d="M31.658,43.795C34.744,43.039,37,40.225,37,37c0-0.336-0.026-0.679-0.079-1.022C38.249,34.665,39,32.883,39,31
	s-0.751-3.665-2.079-4.978C36.974,25.679,37,25.336,37,25c0-3.226-2.256-6.04-5.342-6.794C30.927,16.289,29.095,15,27,15
	c-1.087,0-2.138,0.363-3,1.019C23.138,15.363,22.087,15,21,15c-2.095,0-3.927,1.289-4.658,3.206C13.256,18.96,11,21.774,11,25
	c0,0.336,0.026,0.679,0.079,1.022C9.751,27.335,9,29.117,9,31s0.751,3.665,2.079,4.978C11.026,36.321,11,36.664,11,37
	c0,3.225,2.256,6.039,5.342,6.795C17.074,45.711,18.905,47,21,47c1.087,0,2.138-0.363,3-1.019C24.862,46.637,25.913,47,27,47
	C29.095,47,30.926,45.711,31.658,43.795z M29.908,19.305c0.01,0.043,0.033,0.08,0.049,0.121C29.748,20.877,28.509,22,27,22v2
	c2.285,0,4.195-1.55,4.79-3.646C33.674,21.084,35,22.916,35,25c0,0.373-0.047,0.762-0.14,1.154
	c-0.088,0.369,0.041,0.757,0.333,0.999C36.342,28.108,37,29.511,37,31c0,1.095-0.359,2.142-1.004,3h-1.139c-2.757,0-5,2.243-5,5h2
	c0-1.654,1.346-3,3-3h0.031C34.958,36.34,35,36.676,35,37c0,2.457-1.834,4.58-4.266,4.939c-0.404,0.06-0.731,0.359-0.826,0.757
	C29.584,44.053,28.389,45,27,45c-0.752,0-1.445-0.294-2-0.808V33.399c2.279-0.465,4-2.484,4-4.899h-2c0,1.302-0.839,2.402-2,2.816
	V17.808C25.555,17.294,26.248,17,27,17C28.389,17,29.584,17.947,29.908,19.305z M18.092,42.696c-0.01-0.043-0.033-0.08-0.049-0.121
	C18.251,41.123,19.491,40,21,40v-2c-2.285,0-4.196,1.55-4.79,3.647C14.326,40.915,13,39.084,13,37c0-0.373,0.047-0.762,0.14-1.154
	c0.088-0.369-0.041-0.757-0.333-0.999C11.658,33.892,11,32.489,11,31s0.658-2.892,1.807-3.847c0.028-0.023,0.047-0.053,0.072-0.079
	c1.855,0.347,3.264,1.971,3.264,3.926h2c0-3.015-2.238-5.511-5.138-5.931C13.004,25.046,13,25.023,13,25
	c0-2.457,1.834-4.58,4.265-4.938c0.405-0.06,0.732-0.359,0.827-0.757C18.416,17.947,19.611,17,21,17c0.752,0,1.445,0.294,2,0.808
	v7.008c-1.161-0.414-2-1.514-2-2.816h-2c0,2.414,1.721,4.434,4,4.899v17.294C22.445,44.706,21.752,45,21,45
	C19.611,45,18.416,44.053,18.092,42.696z"/>
<path d="M20.938,53.798c0.674,0.091,1.366,0.151,2.056,0.181l0.086-1.998c-0.63-0.027-1.261-0.082-1.876-0.165L20.938,53.798z"/>
<path d="M26.843,51.809c-0.622,0.084-1.254,0.141-1.878,0.169l0.092,1.998c0.682-0.031,1.373-0.094,2.052-0.185L26.843,51.809z"/>
<path d="M16.918,52.889c0.648,0.21,1.318,0.395,1.992,0.546l0.439-1.951c-0.613-0.139-1.224-0.306-1.814-0.497L16.918,52.889z"/>
<path d="M13.123,51.27c0.598,0.322,1.224,0.624,1.863,0.896l0.783-1.84c-0.582-0.248-1.152-0.522-1.695-0.816L13.123,51.27z"/>
<path d="M9.686,49.004c0.535,0.426,1.097,0.833,1.67,1.211l1.1-1.67c-0.522-0.345-1.035-0.717-1.523-1.105L9.686,49.004z"/>
<path d="M6.702,46.16c0.453,0.517,0.934,1.018,1.429,1.488l1.379-1.447c-0.451-0.431-0.89-0.888-1.304-1.359L6.702,46.16z"/>
<path d="M5.988,41.803l-1.715,1.029c0.354,0.588,0.737,1.167,1.141,1.719l1.615-1.18C6.66,42.867,6.311,42.339,5.988,41.803z"/>
<path d="M4.348,38.416l-1.871,0.707c0.243,0.645,0.518,1.282,0.815,1.896l1.799-0.873C4.82,39.587,4.57,39.005,4.348,38.416z"/>
<path d="M3.341,34.791L1.374,35.15c0.123,0.676,0.278,1.353,0.461,2.012l1.928-0.535C3.596,36.026,3.454,35.408,3.341,34.791z"/>
<path d="M3,31.044l-2,0.004c0.001,0.68,0.033,1.372,0.095,2.059l1.992-0.18C3.03,32.299,3.001,31.665,3,31.044z"/>
<path d="M1.087,28.988l1.992,0.174c0.055-0.622,0.138-1.251,0.247-1.868l-1.969-0.35C1.237,27.619,1.146,28.308,1.087,28.988z"/>
<path d="M1.809,24.933l1.93,0.525c0.164-0.601,0.358-1.204,0.577-1.792l-1.873-0.699C2.201,23.611,1.988,24.272,1.809,24.933z"/>
<path d="M46.151,24.789c-0.186-0.66-0.402-1.319-0.646-1.958l-1.869,0.709c0.222,0.585,0.42,1.187,0.589,1.79L46.151,24.789z"/>
<path d="M3.249,21.068l1.803,0.865c0.269-0.561,0.568-1.119,0.89-1.66l-1.719-1.021C3.87,19.844,3.543,20.455,3.249,21.068z"/>
<path d="M41.99,20.16c0.321,0.532,0.624,1.089,0.9,1.653l1.797-0.877c-0.302-0.618-0.633-1.227-0.984-1.81L41.99,20.16z"/>
<path d="M6.977,18.7c0.37-0.511,0.765-1.007,1.173-1.476l-1.51-1.312c-0.445,0.513-0.877,1.056-1.282,1.614L6.977,18.7z"/>
<path d="M39.765,17.126c0.415,0.472,0.812,0.965,1.18,1.466l1.613-1.182c-0.402-0.55-0.838-1.09-1.293-1.606L39.765,17.126z"/>
<path d="M10.863,14.617l-1.25-1.561c-0.53,0.424-1.052,0.883-1.55,1.361l1.385,1.441C9.903,15.423,10.379,15.005,10.863,14.617z"/>
<path d="M37.033,14.533c0.492,0.391,0.971,0.806,1.422,1.235l1.379-1.449c-0.495-0.471-1.019-0.926-1.557-1.353L37.033,14.533z"/>
<path d="M13.042,10.773c-0.599,0.325-1.192,0.683-1.766,1.063l1.107,1.666c0.523-0.348,1.066-0.675,1.613-0.972L13.042,10.773z"/>
<path d="M36.605,11.759c-0.566-0.372-1.163-0.727-1.774-1.054l-0.943,1.764c0.558,0.299,1.103,0.622,1.618,0.962L36.605,11.759z"/>
<path d="M15.69,11.708c0.573-0.247,1.165-0.472,1.76-0.667l-0.623-1.9c-0.652,0.214-1.301,0.46-1.93,0.731L15.69,11.708z"/>
<path d="M32.97,9.816c-0.628-0.268-1.279-0.51-1.937-0.721L30.422,11c0.6,0.192,1.193,0.413,1.765,0.656L32.97,9.816z"/>
<path d="M20.843,8.214c-0.681,0.094-1.363,0.219-2.028,0.372l0.449,1.949c0.607-0.14,1.23-0.255,1.853-0.341L20.843,8.214z"/>
<path d="M29.043,8.556c-0.67-0.15-1.354-0.271-2.031-0.359l-0.26,1.982c0.619,0.081,1.243,0.191,1.855,0.328L29.043,8.556z"/>
<path d="M24.874,10.018l0.084-1.998C24.641,8.006,24.32,8,24.003,8c-0.377-0.004-0.74,0.008-1.106,0.025l0.094,1.998
	C23.308,10.008,23.627,10,23.949,10C24.265,10.003,24.567,10.005,24.874,10.018z"/>
<path d="M45.883,29.531c-0.346-0.654-1.42-0.654-1.766,0l-17,32c-0.165,0.31-0.155,0.684,0.025,0.984C27.324,62.816,27.649,63,28,63
	h34c0.351,0,0.676-0.184,0.857-0.484c0.181-0.301,0.19-0.675,0.025-0.984L45.883,29.531z M29.664,61L45,32.132L60.336,61H29.664z"/>
<path d="M41.197,42.403c-0.188,0.253-0.246,0.581-0.155,0.884l3,10C44.17,53.712,44.561,54,45,54c0.016,0,0.031,0,0.047-0.001
	c0.459-0.021,0.844-0.353,0.934-0.803l2-10c0.059-0.294-0.018-0.599-0.207-0.83C47.583,42.135,47.3,42,47,42h-5
	C41.684,42,41.387,42.149,41.197,42.403z M45.78,44l-0.975,4.872L43.344,44H45.78z"/>
<path d="M45,55.5L45,55.5c-1.105,0-2,0.895-2,2v0c0,1.105,0.895,2,2,2h0c1.105,0,2-0.895,2-2v0C47,56.395,46.105,55.5,45,55.5z"/>
<path d="M54,1c-4.963,0-9,4.037-9,9s4.037,9,9,9s9-4.037,9-9S58.963,1,54,1z M54,17c-3.859,0-7-3.141-7-7s3.141-7,7-7s7,3.141,7,7
	S57.859,17,54,17z"/>
<polygon points="56.828,5.758 54,8.586 51.172,5.758 49.758,7.172 52.586,10 49.758,12.828 51.172,14.242 54,11.414 56.828,14.242 
	58.242,12.828 55.414,10 58.242,7.172 "/>
</svg>
