<svg xmlns="http://www.w3.org/2000/svg" xmlns:xlink="http://www.w3.org/1999/xlink" id="body_1" width="75" height="88">
<g transform="matrix(2.6666667 0 0 2.6666667 0 0)">
    <path d="M12.011719 2C 6.5057187 2 2.0234845 6.478375 2.0214844 11.984375C 2.0204844 13.744375 2.4814687 15.462563 3.3554688 16.976562L3.3554688 16.976562L2 22L7.232422 20.763672C 8.6914215 21.559671 10.333859 21.977516 12.005859 21.978516L12.005859 21.978516L12.009766 21.978516C 17.514767 21.978516 21.995047 17.499142 21.998047 11.994141C 22.000048 9.325141 20.962172 6.8157344 19.076172 4.9277344C 17.190172 3.0407343 14.683719 2.001 12.011719 2zM12.009766 4C 14.145766 4.001 16.153109 4.833797 17.66211 6.341797C 19.171108 7.851797 20.000048 9.858188 19.998047 11.992188C 19.996046 16.396187 16.413813 19.978516 12.007812 19.978516C 10.674812 19.977516 9.354406 19.642813 8.191406 19.007812L8.191406 19.007812L7.517578 18.640625L6.7734375 18.816406L4.8046875 19.28125L5.2851562 17.496094L5.501953 16.695312L5.0878906 15.976562C 4.3898907 14.768562 4.0204844 13.387375 4.0214844 11.984375C 4.023484 7.582375 7.6067657 4 12.009766 4zM8.4765625 7.375C 8.309563 7.375 8.039547 7.4375 7.810547 7.6875C 7.581547 7.9365 6.935547 8.539578 6.935547 9.767578C 6.935547 10.995578 7.830078 12.182609 7.955078 12.349609C 8.079078 12.515609 9.68175 15.115234 12.21875 16.115234C 14.32675 16.946234 14.754891 16.782234 15.212891 16.740234C 15.670891 16.699234 16.690437 16.137688 16.898438 15.554688C 17.106438 14.971687 17.106922 14.470187 17.044922 14.367188C 16.982922 14.263188 16.816406 14.201172 16.566406 14.076172C 16.317406 13.951172 15.090328 13.348625 14.861328 13.265625C 14.632328 13.182625 14.464828 13.140625 14.298828 13.390625C 14.132828 13.640625 13.655766 14.201187 13.509766 14.367188C 13.363766 14.534188 13.21875 14.556641 12.96875 14.431641C 12.71875 14.305641 11.914938 14.041406 10.960938 13.191406C 10.218937 12.530406 9.718266 11.714844 9.572266 11.464844C 9.427265 11.215844 9.558594 11.079078 9.683594 10.955078C 9.795594 10.843078 9.931641 10.663578 10.056641 10.517578C 10.180641 10.371578 10.223641 10.267562 10.306641 10.101562C 10.389641 9.935562 10.347156 9.7890625 10.285156 9.6640625C 10.223156 9.5390625 9.737625 8.3065 9.515625 7.8125C 9.328625 7.3975 9.131125 7.3878593 8.953125 7.3808594C 8.808125 7.3748593 8.642563 7.375 8.4765625 7.375z" stroke="none" fill="#FFFFFF" fill-rule="nonzero" />
</g>
</svg>